<?xml version="1.0" encoding="UTF-8" standalone="no"?>
<svg width="521px" height="180px" viewBox="0 0 521 180" version="1.1" xmlns="http://www.w3.org/2000/svg" xmlns:xlink="http://www.w3.org/1999/xlink">
    <!-- Generator: Sketch 42 (36781) - http://www.bohemiancoding.com/sketch -->
    <title>border</title>
    <desc>Created with Sketch.</desc>
    <defs>
        <path d="M19.4468361,4.97847494 C19.7523401,2.22893915 22.2292137,0 25.0094543,0 L514.990546,0 C517.757191,0 520,2.24328332 520,5.00209719 L520,174.997903 C520,177.760485 517.766623,180 514.99943,180 L5.00057005,180 C2.23883147,180 0.247452917,177.772924 0.553163882,175.021525 L19.4468361,4.97847494 Z" id="path-1"></path>
        <mask id="mask-2" maskContentUnits="userSpaceOnUse" maskUnits="objectBoundingBox" x="0" y="0" width="519.477816" height="180" fill="white">
            <use xlink:href="#path-1"></use>
        </mask>
    </defs>
    <g id="Page-1" stroke="none" stroke-width="1" fill="none" fill-rule="evenodd">
        <g id="border">
            <g id="Group">
                <use id="Rectangle-2" stroke="#000000" mask="url(#mask-2)" stroke-width="30" xlink:href="#path-1"></use>
                <path d="M69,123.825 L69,58.025 C69,57.125 69.9,56.325 71.1,56.325 L82,56.325 C83.3,56.325 84.1,57.125 84.1,58.025 L84.1,123.825 C84.1,124.625 83.3,125.525 82,125.525 L71.1,125.525 C69.9,125.525 69,124.625 69,123.825 Z M172.6,58.025 L172.6,123.825 C172.6,124.625 171.8,125.525 170.5,125.525 L159.7,125.525 C158.4,125.525 157.5,124.625 157.5,123.825 L157.5,91.025 L142.8,121.825 C142.6,122.225 141.6,122.925 140.9,122.925 L130.6,122.925 C129.9,122.925 129,122.325 128.8,121.825 L112.8,89.825 L112.8,123.825 C112.8,124.625 112,125.525 110.7,125.525 L99.8,125.525 C98.6,125.525 97.7,124.625 97.7,123.825 L97.7,58.025 C97.7,57.125 98.6,56.325 99.8,56.325 L110.9,56.325 C111.6,56.325 112.6,56.925 112.8,57.325 L135.7,104.625 L157.5,57.325 C157.7,56.825 158.9,56.325 159.5,56.325 L170.5,56.325 C171.8,56.325 172.6,57.125 172.6,58.025 Z M210.8,56.325 C213.6,56.325 234.7,56.725 234.7,77.525 C234.7,98.325 212.5,98.525 210.8,98.525 L202,98.525 L202,124.025 C202,124.825 201.3,125.725 199.9,125.725 L189,125.725 C187.8,125.725 187,124.825 187,124.025 L187,58.025 C187,57.125 187.8,56.325 189,56.325 L210.8,56.325 Z M273.8,117.525 L253.8,117.525 L251.3,124.425 C251.1,125.025 250.2,125.525 249.2,125.525 L237.3,125.525 C235.6,125.525 234.9,124.325 235.4,123.125 C244,101.125 253.3,77.125 261.9,55.125 C262.6,53.625 265.1,53.625 265.8,55.125 L292.3,123.125 C292.8,124.325 292,125.525 290.5,125.525 L278.4,125.525 C277.6,125.525 276.7,125.025 276.5,124.325 L273.8,117.525 Z M332.1,111.925 C337.6,111.925 342.6,109.625 346.4,105.825 C347.1,105.225 348.5,105.325 349.5,106.125 L357.1,113.725 C357.4,114.425 357.6,115.825 357.1,116.325 C350.8,122.325 341.7,126.525 332.1,126.525 C312.5,126.525 296.6,112.525 296.6,90.525 C296.6,69.425 311.4,54.525 332.1,54.525 C341.7,54.525 350.8,58.725 357.1,64.825 C357.5,65.525 357.5,66.925 356.9,67.525 L349.1,75.225 C348.3,75.825 347.1,75.825 346.4,75.225 C342.6,71.425 337.6,69.125 332.1,69.125 C319.6,69.125 312.1,78.225 312.1,90.525 C312.1,103.725 321.1,111.925 332.1,111.925 Z M409.6,57.325 L409.6,67.425 C409.6,68.225 408.7,69.125 407.4,69.125 L395.6,69.125 L395.6,123.825 C395.6,124.625 394.7,125.525 393.4,125.525 L382.4,125.525 C381.2,125.525 380.3,124.625 380.3,123.825 L380.3,69.125 L368.4,69.125 C367.2,69.125 366.3,68.225 366.3,67.425 L366.3,57.325 C366.3,56.425 367.2,55.525 368.4,55.525 L407.4,55.525 C408.7,55.525 409.6,56.425 409.6,57.325 Z M443.7,107.125 C428.9,107.125 416.8,95.525 416.8,81.025 C416.8,66.625 428.9,54.725 443.7,54.725 C458.4,54.725 470.5,66.625 470.5,81.025 C470.5,95.525 458.4,107.125 443.7,107.125 Z M467.5,112.825 L467.5,123.825 C467.5,124.625 466.6,125.525 465.3,125.525 L421.5,125.525 C420.2,125.525 419.4,124.625 419.4,123.825 L419.4,112.825 C419.4,111.925 420.2,111.025 421.5,111.025 L465.3,111.025 C466.6,111.025 467.5,111.925 467.5,112.825 Z M210.8,84.225 C212.3,84.225 219.7,84.025 219.7,77.525 C219.7,71.025 212.2,70.625 210.8,70.625 L202,70.625 L202,84.225 L210.8,84.225 Z M261.4,95.025 L257.8,105.425 L269.8,105.425 L266.3,95.025 C265.3,91.725 264.336435,87.2658027 264.336435,87.2658027 C264.095399,86.193927 263.698986,86.2066747 263.4495,87.2776611 C263.4495,87.2776611 262.4,92.025 261.4,95.025 Z M443.7,69.225 C437.3,69.225 432.1,74.425 432.1,81.025 C432.1,87.725 437.3,92.625 443.7,92.625 C450.1,92.625 455.2,87.725 455.2,81.025 C455.2,74.425 450.1,69.225 443.7,69.225 Z" id="Combined-Shape" fill="#000000"></path>
            </g>
        </g>
    </g>
</svg>