<?xml version="1.0" encoding="UTF-8" standalone="no"?>
<svg width="402px" height="73px" viewBox="0 0 402 73" version="1.1" xmlns="http://www.w3.org/2000/svg" xmlns:xlink="http://www.w3.org/1999/xlink">
    <!-- Generator: Sketch 42 (36781) - http://www.bohemiancoding.com/sketch -->
    <title>no border</title>
    <desc>Created with Sketch.</desc>
    <defs></defs>
    <g id="Page-1" stroke="none" stroke-width="1" fill="none" fill-rule="evenodd">
        <g id="no-border" fill="#000000">
            <path d="M0,69.825 L0,4.025 C0,3.125 0.9,2.325 2.1,2.325 L13,2.325 C14.3,2.325 15.1,3.125 15.1,4.025 L15.1,69.825 C15.1,70.625 14.3,71.525 13,71.525 L2.1,71.525 C0.9,71.525 0,70.625 0,69.825 Z M103.6,4.025 L103.6,69.825 C103.6,70.625 102.8,71.525 101.5,71.525 L90.7,71.525 C89.4,71.525 88.5,70.625 88.5,69.825 L88.5,37.025 L73.8,67.825 C73.6,68.225 72.6,68.925 71.9,68.925 L61.6,68.925 C60.9,68.925 60,68.325 59.8,67.825 L43.8,35.825 L43.8,69.825 C43.8,70.625 43,71.525 41.7,71.525 L30.8,71.525 C29.6,71.525 28.7,70.625 28.7,69.825 L28.7,4.025 C28.7,3.125 29.6,2.325 30.8,2.325 L41.9,2.325 C42.6,2.325 43.6,2.925 43.8,3.325 L66.7,50.625 L88.5,3.325 C88.7,2.825 89.9,2.325 90.5,2.325 L101.5,2.325 C102.8,2.325 103.6,3.125 103.6,4.025 Z M141.8,2.325 C144.6,2.325 165.7,2.725 165.7,23.525 C165.7,44.325 143.5,44.525 141.8,44.525 L133,44.525 L133,70.025 C133,70.825 132.3,71.725 130.9,71.725 L120,71.725 C118.8,71.725 118,70.825 118,70.025 L118,4.025 C118,3.125 118.8,2.325 120,2.325 L141.8,2.325 Z M204.8,63.525 L184.8,63.525 L182.3,70.425 C182.1,71.025 181.2,71.525 180.2,71.525 L168.3,71.525 C166.6,71.525 165.9,70.325 166.4,69.125 C175,47.125 184.3,23.125 192.9,1.125 C193.6,-0.375 196.1,-0.375 196.8,1.125 L223.3,69.125 C223.8,70.325 223,71.525 221.5,71.525 L209.4,71.525 C208.6,71.525 207.7,71.025 207.5,70.325 L204.8,63.525 Z M263.1,57.925 C268.6,57.925 273.6,55.625 277.4,51.825 C278.1,51.225 279.5,51.325 280.5,52.125 L288.1,59.725 C288.4,60.425 288.6,61.825 288.1,62.325 C281.8,68.325 272.7,72.525 263.1,72.525 C243.5,72.525 227.6,58.525 227.6,36.525 C227.6,15.425 242.4,0.525 263.1,0.525 C272.7,0.525 281.8,4.725 288.1,10.825 C288.5,11.525 288.5,12.925 287.9,13.525 L280.1,21.225 C279.3,21.825 278.1,21.825 277.4,21.225 C273.6,17.425 268.6,15.125 263.1,15.125 C250.6,15.125 243.1,24.225 243.1,36.525 C243.1,49.725 252.1,57.925 263.1,57.925 Z M340.6,3.325 L340.6,13.425 C340.6,14.225 339.7,15.125 338.4,15.125 L326.6,15.125 L326.6,69.825 C326.6,70.625 325.7,71.525 324.4,71.525 L313.4,71.525 C312.2,71.525 311.3,70.625 311.3,69.825 L311.3,15.125 L299.4,15.125 C298.2,15.125 297.3,14.225 297.3,13.425 L297.3,3.325 C297.3,2.425 298.2,1.525 299.4,1.525 L338.4,1.525 C339.7,1.525 340.6,2.425 340.6,3.325 Z M374.7,53.125 C359.9,53.125 347.8,41.525 347.8,27.025 C347.8,12.625 359.9,0.725 374.7,0.725 C389.4,0.725 401.5,12.625 401.5,27.025 C401.5,41.525 389.4,53.125 374.7,53.125 Z M398.5,58.825 L398.5,69.825 C398.5,70.625 397.6,71.525 396.3,71.525 L352.5,71.525 C351.2,71.525 350.4,70.625 350.4,69.825 L350.4,58.825 C350.4,57.925 351.2,57.025 352.5,57.025 L396.3,57.025 C397.6,57.025 398.5,57.925 398.5,58.825 Z M141.8,30.225 C143.3,30.225 150.7,30.025 150.7,23.525 C150.7,17.025 143.2,16.625 141.8,16.625 L133,16.625 L133,30.225 L141.8,30.225 Z M192.4,41.025 L188.8,51.425 L200.8,51.425 L197.3,41.025 C196.3,37.725 195.336435,33.2658027 195.336435,33.2658027 C195.095399,32.193927 194.698986,32.2066747 194.4495,33.2776611 C194.4495,33.2776611 193.4,38.025 192.4,41.025 Z M374.7,15.225 C368.3,15.225 363.1,20.425 363.1,27.025 C363.1,33.725 368.3,38.625 374.7,38.625 C381.1,38.625 386.2,33.725 386.2,27.025 C386.2,20.425 381.1,15.225 374.7,15.225 Z" id="impacto"></path>
        </g>
    </g>
</svg>